<svg width="0" height="0" class="hidden">
  <symbol version="1.1" id="menu-svgrepo-com" xmlns="http://www.w3.org/2000/svg" xmlns:xlink="http://www.w3.org/1999/xlink" x="0px" y="0px" xml:space="preserve" viewBox="0 0 384.97 384.97">
    <g>
      <g id="Menu">
        <path d="M12.03,84.212h360.909c6.641,0,12.03-5.39,12.03-12.03c0-6.641-5.39-12.03-12.03-12.03H12.03
			C5.39,60.152,0,65.541,0,72.182C0,78.823,5.39,84.212,12.03,84.212z"></path>
        <path d="M372.939,180.455H12.03c-6.641,0-12.03,5.39-12.03,12.03s5.39,12.03,12.03,12.03h360.909c6.641,0,12.03-5.39,12.03-12.03
			S379.58,180.455,372.939,180.455z"></path>
        <path d="M372.939,300.758H12.03c-6.641,0-12.03,5.39-12.03,12.03c0,6.641,5.39,12.03,12.03,12.03h360.909
			c6.641,0,12.03-5.39,12.03-12.03C384.97,306.147,379.58,300.758,372.939,300.758z"></path>
      </g>
      <g></g>
      <g></g>
      <g></g>
      <g></g>
      <g></g>
      <g></g>
    </g>
    <g></g>
    <g></g>
    <g></g>
    <g></g>
    <g></g>
    <g></g>
    <g></g>
    <g></g>
    <g></g>
    <g></g>
    <g></g>
    <g></g>
    <g></g>
    <g></g>
    <g></g>
  </symbol>



  <symbol version="1.1" xmlns="http://www.w3.org/2000/svg" xmlns:xlink="http://www.w3.org/1999/xlink" x="0px" y="0px" xml:space="preserve" viewBox="0 0 141 22.3" id="awwwards-long">
    <path id="logo-a1" d="M0.6,10.5c0.5-2.6,2.8-4.4,6-4.4c3.7,0,6.6,1.6,6.6,6.6V22H10l-0.4-2c-1.1,1.4-2.6,2.3-4.8,2.3c-2.7,0-4.8-1.7-4.8-4.8s2.8-5.1,6.7-5.1h2.6v-0.7c0-1.8-1.3-2.3-2.8-2.3c-1.1,0-2.2,0.4-2.7,1.8L0.6,10.5z M5.7,19c1.8,0,3.6-1.2,3.6-3.2v-0.3H6.8c-1.7-0.1-2.7,0.6-2.7,2C4.1,18.2,4.7,19,5.7,19z"></path>
    <path id="logo-a2" d="M76,10.5c0.5-2.6,2.8-4.4,6-4.4c3.7,0,6.6,1.6,6.6,6.6V22h-3.2L85,20c-1.1,1.4-2.6,2.3-4.8,2.3c-2.7,0-4.8-1.7-4.8-4.8s2.8-5.1,6.7-5.1h2.6v-0.7c0-1.8-1.3-2.3-2.8-2.3c-1.1,0-2.2,0.4-2.7,1.8L76,10.5z M81.1,19c1.8,0,3.6-1.2,3.6-3.2v-0.3h-2.6c-1.7,0-2.7,0.6-2.7,2C79.5,18.2,80.1,19,81.1,19z"></path>
    <path id="logo-r" d="M92.1,22.1V6.3H96v2.6c1.1-1.9,2.9-2.8,4.6-2.8c0.7,0,1.3,0.1,1.9,0.3l-0.7,3.6c-0.5-0.3-1-0.5-1.6-0.5c-2.3,0-4.2,1.9-4.2,6.9V22L92.1,22.1L92.1,22.1z"></path>
    <path id="logo-d" d="M110.8,6.1c1.6,0,3.1,0.8,3.8,1.7V0h3.9v22.1h-3.9v-1.6c-0.5,0.8-1.9,1.9-3.8,1.9c-4.7,0-7.1-3.3-7.1-8.1S106.1,6.1,110.8,6.1z M111.4,19c2,0,3.6-1.7,3.6-4.8s-1.6-4.8-3.6-4.8c-2,0-3.6,1.7-3.6,4.8S109.4,19,111.4,19z"></path>
    <path id="logo-s" d="M132.5,8.6l-2.3,2.1c-0.7-1-1.8-1.4-2.6-1.4c-0.8,0-1.5,0.5-1.5,1.3c0,0.7,0.6,1.2,1.5,1.5c2.2,0.8,5.7,1.5,5.7,4.8c0,2.9-2.2,5.2-5.6,5.2c-3.3,0-5.5-2.3-6.2-4.2l3.1-1.7c0.6,1.5,1.6,2.6,3.2,2.6c1.2,0,2-0.6,2-1.7c0-1.3-2-1.6-3.9-2.4c-1.7-0.7-3.2-1.8-3.2-4.2s2-4.6,5-4.6C129.7,6,131.6,7.1,132.5,8.6z"></path>
    <polygon id="logo-w2" points="51.9,6.3 49.1,17.2 46.4,6.3 42.8,6.3 40.2,17.2 38,10.9 37.7,11.6 36.5,15.7 38.5,22.1 41.9,22.1 44.6,11.9 47.3,22.1 50.8,22.1 55.8,6.3 "></polygon>
    <polygon id="logo-w3" points="70.6,6.3 67.8,17.2 65.1,6.3 61.5,6.3 58.9,17.2 56.7,10.9 56.4,11.6 55.1,15.7 57.2,22.1 60.6,22.1 63.3,11.9 66,22.1 69.4,22.1 74.5,6.3 "></polygon>
    <path id="logo-w1" d="M37.1,6.3l-5,15.7h-3.4L26,11.9l-2.7,10.2h-3.4l-5-15.7h3.9l2.8,10.8l2.7-10.8h3.6l2.7,10.8l2.8-10.8L37.1,6.3L37.1,6.3z"></path>
    <path id="logo-p" d="M138.4,17c1.5,0,2.6,1.1,2.6,2.6s-1.1,2.6-2.6,2.6s-2.6-1.1-2.6-2.6S136.9,17,138.4,17z"></path>
  </symbol>



  <symbol version="1.1" id="search" xmlns="http://www.w3.org/2000/svg" xmlns:xlink="http://www.w3.org/1999/xlink" x="0px" y="0px" xml:space="preserve" viewBox="0 0 183.792 183.792">
    <path d="M54.734,9.053C39.12,18.067,27.95,32.624,23.284,50.039c-4.667,17.415-2.271,35.606,6.743,51.22
	c12.023,20.823,34.441,33.759,58.508,33.759c7.599,0,15.139-1.308,22.287-3.818l30.364,52.592l21.65-12.5l-30.359-52.583
	c10.255-8.774,17.638-20.411,21.207-33.73c4.666-17.415,2.27-35.605-6.744-51.22C134.918,12.936,112.499,0,88.433,0
	C76.645,0,64.992,3.13,54.734,9.053z M125.29,46.259c5.676,9.831,7.184,21.285,4.246,32.25c-2.938,10.965-9.971,20.13-19.802,25.806
	c-6.462,3.731-13.793,5.703-21.199,5.703c-15.163,0-29.286-8.146-36.857-21.259c-5.676-9.831-7.184-21.284-4.245-32.25
	c2.938-10.965,9.971-20.13,19.802-25.807C73.696,26.972,81.027,25,88.433,25C103.597,25,117.719,33.146,125.29,46.259z"></path>
    <g></g>
    <g></g>
    <g></g>
    <g></g>
    <g></g>
    <g></g>
    <g></g>
    <g></g>
    <g></g>
    <g></g>
    <g></g>
    <g></g>
    <g></g>
    <g></g>
    <g></g>
  </symbol>


  <symbol version="1.1" id="star" xmlns="http://www.w3.org/2000/svg" xmlns:xlink="http://www.w3.org/1999/xlink" x="0px" y="0px" xml:space="preserve" viewBox="0 0 55.867 55.867">
    <path d="M55.818,21.578c-0.118-0.362-0.431-0.626-0.808-0.681L36.92,18.268L28.83,1.876c-0.168-0.342-0.516-0.558-0.896-0.558
	s-0.729,0.216-0.896,0.558l-8.091,16.393l-18.09,2.629c-0.377,0.055-0.689,0.318-0.808,0.681c-0.117,0.361-0.02,0.759,0.253,1.024
	l13.091,12.76l-3.091,18.018c-0.064,0.375,0.09,0.754,0.397,0.978c0.309,0.226,0.718,0.255,1.053,0.076l16.182-8.506l16.18,8.506
	c0.146,0.077,0.307,0.115,0.466,0.115c0.207,0,0.413-0.064,0.588-0.191c0.308-0.224,0.462-0.603,0.397-0.978l-3.09-18.017
	l13.091-12.761C55.838,22.336,55.936,21.939,55.818,21.578z"></path>
    <g></g>
    <g></g>
    <g></g>
    <g></g>
    <g></g>
    <g></g>
    <g></g>
    <g></g>
    <g></g>
    <g></g>
    <g></g>
    <g></g>
    <g></g>
    <g></g>
    <g></g>
  </symbol>
 


 
</svg>




